<?xml version="1.0" encoding="utf-8"?>
<!-- Generator: Adobe Illustrator 25.0.0, SVG Export Plug-In . SVG Version: 6.00 Build 0)  -->
<svg version="1.1" id="Layer_1" xmlns="http://www.w3.org/2000/svg" xmlns:xlink="http://www.w3.org/1999/xlink" x="0px" y="0px"
	 viewBox="0 0 139.1 153.5" style="enable-background:new 0 0 139.1 153.5;" xml:space="preserve">
<style type="text/css">
	.st0{fill:#FFFFFF;}
</style>
<g>
	<path class="st0" d="M107.3,3.1c-2.5-0.5-5.1-0.8-7.7-0.8c-11.9,0-22.8,5.6-29.9,14.6c-2.2-2.9-4.7-5.4-7.6-7.6
		c-6.6-4.9-14.4-7.5-22.6-7.5c-12,0-23.4,5.7-30.5,15.4c-6,8.2-8.6,18.2-7.1,28.2C3,52.6,6,59.2,10.7,64.6
		c-5.1,12.7-5.9,26.6-2.3,40c1.3,4.8,3.2,9.5,5.6,13.9C25,139,46.4,151.7,69.7,151.7c10.5,0,21-2.7,30.3-7.8
		c28.5-15.5,40.3-49.8,28.7-79.1c4.1-4.8,6.9-10.6,8.2-16.8C141.1,27.4,127.8,7.3,107.3,3.1z M129.5,46.4
		c-1.3,6.5-4.8,12.4-9.7,16.8c6.3,12.7,7.6,27.1,3.6,40.8c-4.2,14.4-13.8,26.2-26.9,33.4c-8.3,4.5-17.5,6.9-26.7,6.9
		c-5.3,0-10.7-0.8-15.9-2.3c-14.4-4.2-26.2-13.8-33.4-26.9c-2.1-3.9-3.8-8-4.9-12.3C12,89.3,13.4,75.3,19.6,63
		C7.6,52.7,5.4,34.6,15,21.7C25,8.1,44.2,5.3,57.7,15.3c5.5,4.1,9.5,10,11.3,16.6c0,0.1,0,0.1,0,0.2c0.4,0,0.8,0,1.3,0
		c2-7.1,6.4-13.2,12.6-17.3c6.8-4.5,14.9-6.1,22.9-4.4c8,1.6,14.8,6.3,19.3,13.1C129.6,30.3,131.2,38.4,129.5,46.4z"/>
	<path class="st0" d="M68.6,113.7c-0.1,0-0.2,0-0.3,0c0,0,0,0,0,0C68.4,113.8,68.5,113.8,68.6,113.7
		C68.6,113.7,68.6,113.7,68.6,113.7z"/>
	<path class="st0" d="M66.6,114.1c-0.1,0-0.2,0-0.2,0.1C66.4,114.1,66.5,114.1,66.6,114.1C66.6,114.1,66.6,114.1,66.6,114.1z"/>
	<path class="st0" d="M58.2,121.7c0.1-0.4,0.3-0.8,0.5-1.1C58.5,120.8,58.4,121.2,58.2,121.7z"/>
	<path class="st0" d="M39.5,94.4c-0.2,11.6,6.2,21.8,15.6,27.1c0.2-0.7,0.6-1.7,0.8-2.3c0.8-1.7,2-3.3,3.4-4.6
		c1.4-1.3,3.1-2.3,4.9-3c1.7-0.6,3.5-1,5.3-1c4.1,0,8.1,1.7,11,4.7c1.3,1.4,2.4,3,3.1,4.8c0.2,0.4,0.4,1.1,0.5,1.7
		c9.6-5,16.2-14.9,16.4-26.5c0-0.2,0-0.3,0-0.5l-61-1.1C39.5,94,39.5,94.2,39.5,94.4z"/>
	<path class="st0" d="M57.8,122.9C57.8,122.9,57.8,122.9,57.8,122.9c0.1-0.4,0.3-0.8,0.4-1.2C58.1,122.1,57.9,122.5,57.8,122.9z"/>
	<path class="st0" d="M72.1,114C72.1,114,72,114,72.1,114C72,114,72.1,114,72.1,114C72.1,114,72.1,114,72.1,114z"/>
	<path class="st0" d="M76.6,116C76.6,115.9,76.5,115.9,76.6,116C76.5,115.9,76.6,115.9,76.6,116C76.6,116,76.6,116,76.6,116z"/>
	<path class="st0" d="M77.5,116.7c-0.1-0.1-0.2-0.1-0.2-0.2l0,0C77.4,116.6,77.4,116.6,77.5,116.7L77.5,116.7z"/>
	<path class="st0" d="M81.3,123.2C81.4,123.2,81.4,123.2,81.3,123.2c-0.1-0.7-0.4-1.4-0.6-1.9C81,121.9,81.2,122.6,81.3,123.2z"/>
	<path class="st0" d="M69.6,113.7C69.6,113.7,69.6,113.7,69.6,113.7c-0.1,0-0.2,0-0.2,0c0,0,0,0,0,0
		C69.4,113.7,69.5,113.7,69.6,113.7C69.6,113.7,69.6,113.7,69.6,113.7z"/>
	<path class="st0" d="M73.2,114.3C73.2,114.3,73.2,114.3,73.2,114.3C73.2,114.3,73.2,114.3,73.2,114.3
		C73.2,114.3,73.2,114.3,73.2,114.3z"/>
	<path class="st0" d="M71,113.8c-0.1,0-0.2,0-0.3,0c0,0,0,0,0,0C70.8,113.8,70.9,113.8,71,113.8C71,113.8,71,113.8,71,113.8z"/>
	<path class="st0" d="M74.2,114.6L74.2,114.6C74.2,114.6,74.2,114.6,74.2,114.6C74.2,114.6,74.2,114.6,74.2,114.6z"/>
	<g>
		<path class="st0" d="M78.3,117.5c-0.3-0.3-0.5-0.5-0.8-0.8c-0.1-0.1-0.2-0.1-0.2-0.2c-0.2-0.2-0.5-0.4-0.7-0.5c0,0,0,0-0.1,0
			c0,0-0.1-0.1-0.1-0.1c-0.3-0.2-0.6-0.4-0.9-0.6c-0.1,0-0.1-0.1-0.2-0.1c-0.3-0.1-0.5-0.3-0.8-0.4c-0.1,0-0.2-0.1-0.3-0.1
			c0,0,0,0,0,0c-0.3-0.1-0.6-0.2-0.9-0.3c0,0,0,0,0,0c0,0,0,0-0.1,0c-0.3-0.1-0.7-0.2-1-0.3c0,0-0.1,0-0.1,0c-0.1,0-0.1,0-0.2,0
			c-0.3-0.1-0.6-0.1-0.8-0.1c-0.1,0-0.2,0-0.3,0c-0.4,0-0.7-0.1-1.1-0.1c-0.1,0-0.2,0-0.2,0c-0.3,0-0.5,0-0.8,0c-0.1,0-0.2,0-0.3,0
			c-0.2,0-0.4,0.1-0.7,0.1c-0.1,0-0.2,0-0.4,0.1c-0.2,0-0.5,0.1-0.7,0.2c-0.1,0-0.2,0-0.2,0.1c0,0,0,0-0.1,0c-0.3,0.1-0.7,0.2-1,0.3
			c-1.4,0.5-2.8,1.4-3.9,2.4c-1.1,1-2,2.3-2.7,3.7c-0.2,0.4-0.3,0.7-0.5,1.1c0,0,0,0,0,0c-0.1,0.4-0.2,0.8-0.3,1.2c0,0,0,0,0,0
			c0.2,0.1,0.4,0.1,0.5,0.2c0.2,0.1,0.5,0.2,0.7,0.3c0.2,0.1,0.5,0.2,0.7,0.3c0.2,0.1,0.4,0.2,0.7,0.2c0.3,0.1,0.5,0.2,0.8,0.2
			c0.2,0.1,0.4,0.1,0.6,0.2c0.3,0.1,0.6,0.2,1,0.2c0.2,0,0.3,0.1,0.5,0.1c0.4,0.1,0.8,0.2,1.1,0.2c0.1,0,0.2,0,0.3,0.1
			c0.5,0.1,0.9,0.1,1.4,0.2c0,0,0.1,0,0.1,0c1,0.1,2.1,0.2,3.1,0.2l0,0c4.1,0.1,8.1-0.7,11.9-2.2c0,0,0,0,0,0
			c-0.1-0.6-0.3-1.3-0.6-1.9C80.2,119.9,79.4,118.6,78.3,117.5z"/>
	</g>
	<path class="st0" d="M45.8,62.9c12.8-3.4,20.4-16.6,17-29.4c-3.4-12.8-16.6-20.4-29.4-17C20.6,20,13,33.1,16.4,46
		C19.8,58.8,33,66.4,45.8,62.9z M28,42.8c-0.5-1.7-0.5-3.5-0.2-5.3c2.9,2.6,7.3,2.3,9.9-0.6c2.3-2.6,2.4-6.5,0.2-9.1
		c6.6-1,12.7,3.5,13.7,10.1c0.9,6-2.9,11.8-8.8,13.4C36.3,53,29.7,49.2,28,42.8z"/>
	<path class="st0" d="M93.5,17c-12.8,3.4-20.4,16.6-17,29.4c3.4,12.8,16.6,20.4,29.4,17c12.8-3.4,20.4-16.6,17-29.4
		C119.5,21.2,106.3,13.6,93.5,17z M102.9,51.8c-6.4,1.7-13-2.1-14.7-8.5c-0.5-1.7-0.5-3.5-0.2-5.3c2.9,2.6,7.3,2.3,9.9-0.6
		c2.3-2.6,2.4-6.5,0.2-9.1c6.6-1,12.7,3.5,13.7,10.1C112.6,44.4,108.8,50.2,102.9,51.8z"/>
</g>
</svg>
