<?xml version="1.0" encoding="utf-8"?>
<!-- Generator: Adobe Illustrator 16.0.0, SVG Export Plug-In . SVG Version: 6.00 Build 0)  -->
<!DOCTYPE svg PUBLIC "-//W3C//DTD SVG 1.1//EN" "http://www.w3.org/Graphics/SVG/1.1/DTD/svg11.dtd">
<svg version="1.1" id="Layer_1" xmlns="http://www.w3.org/2000/svg" xmlns:xlink="http://www.w3.org/1999/xlink" x="0px" y="0px"
	 width="576px" height="576px" viewBox="0 0 576 576" enable-background="new 0 0 576 576" xml:space="preserve">
<g>
	<path fill="#CBD0D4" d="M429.654,11.633c-9.381-1.876-19.137-3.002-28.894-3.002c-44.654,0-85.556,21.014-112.198,54.785
		c-8.255-10.882-17.636-20.263-28.518-28.519c-24.766-18.387-54.035-28.143-84.805-28.143c-45.029,0-87.807,21.389-114.45,57.788
		c-22.515,30.77-32.271,68.294-26.642,105.819c4.127,27.018,15.385,51.784,33.021,72.047c-19.138,47.657-22.14,99.815-8.631,150.098
		c4.878,18.012,12.008,35.647,21.014,52.158c41.277,76.926,121.579,124.582,209.011,124.582c39.401,0,78.802-10.132,113.699-29.27
		c106.944-58.163,151.224-186.871,107.695-296.818c15.385-18.012,25.892-39.776,30.77-63.041
		C556.487,102.817,506.58,27.393,429.654,11.633z M512.959,174.113c-4.878,24.391-18.012,46.53-36.398,63.041
		c23.641,47.656,28.519,101.691,13.509,153.1c-15.761,54.035-51.784,98.314-100.941,125.332
		c-31.145,16.886-65.667,25.892-100.19,25.892c-19.887,0-40.15-3.002-59.663-8.631c-54.035-15.76-98.314-51.783-125.332-100.94
		c-7.88-14.635-14.259-30.02-18.387-46.155c-13.509-50.657-8.255-103.192,15.01-149.347
		c-45.029-38.65-53.285-106.569-17.261-154.976c37.524-51.034,109.571-61.541,160.229-24.016
		c20.638,15.385,35.648,37.525,42.402,62.291c0,0.375,0,0.375,0,0.75c1.501,0,3.001,0,4.878,0
		c7.505-26.643,24.016-49.532,47.28-64.917c25.517-16.886,55.912-22.89,85.932-16.511c30.02,6.004,55.536,23.641,72.422,49.157
		S519.338,144.094,512.959,174.113z"/>
	<path fill="#CBD0D4" d="M284.435,426.652c-0.375,0-0.75,0-1.125,0l0,0C283.685,427.028,284.06,427.028,284.435,426.652
		L284.435,426.652z"/>
	<path fill="#CBD0D4" d="M276.93,428.153c-0.375,0-0.75,0-0.75,0.376C276.18,428.153,276.555,428.153,276.93,428.153L276.93,428.153
		z"/>
	<path fill="#CBD0D4" d="M245.41,456.672c0.375-1.501,1.126-3.002,1.876-4.127C246.536,453.295,246.16,454.796,245.41,456.672z"/>
	<path fill="#CBD0D4" d="M175.239,354.23c-0.75,43.528,23.265,81.804,58.538,101.691c0.75-2.627,2.251-6.379,3.002-8.631
		c3.002-6.379,7.505-12.383,12.758-17.261c5.253-4.879,11.632-8.631,18.387-11.258c6.379-2.251,13.134-3.752,19.888-3.752
		c15.385,0,30.395,6.379,41.276,17.636c4.879,5.254,9.006,11.258,11.633,18.012c0.751,1.501,1.501,4.128,1.876,6.38
		c36.023-18.763,60.79-55.912,61.54-99.44c0-0.75,0-1.125,0-1.876l-228.898-4.128C175.239,352.729,175.239,353.48,175.239,354.23z"
		/>
	<path fill="#CBD0D4" d="M243.909,461.175L243.909,461.175c0.375-1.501,1.126-3.002,1.501-4.503
		C245.035,458.173,244.284,459.674,243.909,461.175z"/>
	<path fill="#CBD0D4" d="M297.568,427.778C297.568,427.778,297.193,427.778,297.568,427.778
		C297.193,427.778,297.568,427.778,297.568,427.778L297.568,427.778z"/>
	<path fill="#CBD0D4" d="M314.455,435.283C314.455,434.908,314.079,434.908,314.455,435.283
		C314.079,434.908,314.455,434.908,314.455,435.283L314.455,435.283z"/>
	<path fill="#CBD0D4" d="M317.832,437.91c-0.375-0.375-0.751-0.375-0.751-0.751l0,0C317.457,437.535,317.457,437.535,317.832,437.91
		L317.832,437.91z"/>
	<path fill="#CBD0D4" d="M332.091,462.301C332.467,462.301,332.467,462.301,332.091,462.301c-0.375-2.627-1.501-5.253-2.251-7.13
		C330.966,457.423,331.716,460.05,332.091,462.301z"/>
	<path fill="#CBD0D4" d="M288.188,426.652L288.188,426.652c-0.375,0-0.75,0-0.75,0l0,0
		C287.437,426.652,287.812,426.652,288.188,426.652L288.188,426.652z"/>
	<path fill="#CBD0D4" d="M301.696,428.904L301.696,428.904L301.696,428.904L301.696,428.904z"/>
	<path fill="#CBD0D4" d="M293.441,427.028c-0.375,0-0.751,0-1.126,0l0,0C292.69,427.028,293.066,427.028,293.441,427.028
		L293.441,427.028z"/>
	<path fill="#CBD0D4" d="M305.449,430.03L305.449,430.03L305.449,430.03L305.449,430.03z"/>
	<g>
		<path fill="#CBD0D4" d="M320.834,440.912c-1.126-1.126-1.876-1.876-3.002-3.002c-0.375-0.375-0.751-0.375-0.751-0.751
			c-0.75-0.75-1.876-1.501-2.626-1.876c0,0,0,0-0.376,0l-0.375-0.375c-1.126-0.751-2.251-1.501-3.377-2.252
			c-0.375,0-0.375-0.375-0.751-0.375c-1.125-0.375-1.876-1.126-3.002-1.501c-0.375,0-0.75-0.375-1.125-0.375l0,0
			c-1.126-0.375-2.252-0.751-3.377-1.126l0,0c0,0,0,0-0.376,0c-1.126-0.375-2.626-0.75-3.753-1.126h-0.375c-0.375,0-0.375,0-0.75,0
			c-1.126-0.375-2.252-0.375-3.002-0.375c-0.375,0-0.75,0-1.126,0c-1.501,0-2.626-0.375-4.128-0.375c-0.375,0-0.75,0-0.75,0
			c-1.126,0-1.876,0-3.002,0c-0.375,0-0.75,0-1.126,0c-0.75,0-1.501,0.375-2.626,0.375c-0.375,0-0.75,0-1.501,0.375
			c-0.75,0-1.876,0.376-2.627,0.751c-0.375,0-0.75,0-0.75,0.375c0,0,0,0-0.375,0c-1.126,0.375-2.627,0.751-3.752,1.126
			c-5.253,1.876-10.507,5.253-14.635,9.006c-4.127,3.752-7.505,8.631-10.131,13.884c-0.75,1.501-1.126,2.627-1.876,4.128l0,0
			c-0.375,1.501-0.75,3.002-1.125,4.503l0,0c0.75,0.375,1.501,0.375,1.876,0.75c0.75,0.376,1.876,0.751,2.627,1.126
			s1.876,0.751,2.626,1.126s1.501,0.75,2.627,0.75c1.125,0.376,1.876,0.751,3.002,0.751c0.75,0.375,1.501,0.375,2.251,0.75
			c1.125,0.376,2.251,0.751,3.752,0.751c0.75,0,1.125,0.375,1.876,0.375c1.501,0.375,3.002,0.751,4.128,0.751
			c0.375,0,0.75,0,1.125,0.375c1.876,0.375,3.377,0.375,5.253,0.75h0.375c3.752,0.376,7.88,0.751,11.632,0.751l0,0
			c15.385,0.375,30.395-2.627,44.654-8.256l0,0c-0.375-2.251-1.125-4.878-2.251-7.129
			C327.964,449.918,324.962,445.04,320.834,440.912z"/>
	</g>
	<path fill="#CBD0D4" d="M198.879,236.029c48.031-12.758,76.55-62.291,63.792-110.322s-62.291-76.55-110.322-63.792
		c-48.031,13.134-76.55,62.291-63.792,110.697C101.316,220.644,150.848,249.162,198.879,236.029z M132.086,160.604
		c-1.876-6.379-1.876-13.133-0.75-19.888c10.882,9.756,27.393,8.63,37.149-2.251c8.63-9.756,9.006-24.391,0.75-34.147
		c24.766-3.752,47.656,13.134,51.408,37.9c3.377,22.515-10.882,44.279-33.021,50.283
		C163.231,198.879,138.465,184.62,132.086,160.604z"/>
	<path fill="#CBD0D4" d="M377.871,63.792c-48.031,12.758-76.55,62.291-63.792,110.322c12.759,48.031,62.291,76.55,110.322,63.792
		s76.55-62.291,63.791-110.322C475.435,79.552,425.902,51.033,377.871,63.792z M413.144,194.376
		c-24.016,6.379-48.781-7.88-55.16-31.896c-1.877-6.379-1.877-13.134-0.751-19.888c10.882,9.756,27.393,8.631,37.149-2.251
		c8.631-9.756,9.006-24.391,0.75-34.147c24.767-3.752,47.656,13.133,51.409,37.899C449.543,166.608,435.283,188.373,413.144,194.376
		z"/>
</g>
</svg>
